<?xml version="1.0" encoding="utf-8"?>
<!-- Generator: Adobe Illustrator 15.0.0, SVG Export Plug-In . SVG Version: 6.00 Build 0)  -->
<!DOCTYPE svg PUBLIC "-//W3C//DTD SVG 1.1//EN" "http://www.w3.org/Graphics/SVG/1.1/DTD/svg11.dtd">
<svg version="1.1" xmlns="http://www.w3.org/2000/svg" xmlns:xlink="http://www.w3.org/1999/xlink" x="0px" y="0px" width="180px"
	 height="193.75px" viewBox="0 0 180 193.75" enable-background="new 0 0 180 193.75" xml:space="preserve">
<g id="Layer_2">
	<path fill="#FFFFFF" d="M150.735,102.13c-0.053-0.141-0.104-0.279-0.157-0.42c-0.308-0.804-0.756-1.936-1.411-2.168
		c-0.047-1.031,0.037-2.066,0.333-3.167c0.486-1.809,0.874-3.573,1.667-5.333c1.656-3.675,2.504-8.571,3.167-12.5
		c1.052-6.229,2.166-9.994,2.166-16.333c0-1.948-1.824-2.716-3.269-2.311c-1.099-1.958-2.161-4.02-2.653-6.188
		c-0.053-0.232-0.134-0.432-0.227-0.616c0.104-0.283,0.162-0.603,0.148-0.969c-0.402-10.468-1.147-22.309-6.925-31.438
		c-1.626-2.57-6.103-5.98-8.91-6.973c-3.073-1.086-5.785-1.619-8.708-0.939c-0.941-0.3-1.78-0.322-2.836-0.172
		c-0.781,0.11-1.525,0.411-2.286,0.612c-0.551,0.146-1.001,0.486-1.321,0.921c-2.029-0.329-4.155-1.224-5.849-1.581
		c-2.165-0.457-4.193-0.679-6.415-0.679c-5.927,0-11.411,0.144-17.06-1.031c-0.339-0.805-1.063-1.441-2.19-1.469
		c-2.575-0.064-4.232-1.796-6.585-2.629c-2.31-0.818-3.991-1.343-6.422-1.797c-3.936-0.735-7.189-2.856-10.328-3.484
		C64.188,1.369,63.76,1.41,63.376,1.53c-1.119-0.244-2.307-0.397-3.626-0.405c-0.213-0.001-0.41,0.022-0.595,0.062
		c-0.444-0.169-0.971-0.188-1.569,0.028c-1.828,0.661-4.112,1.448-5.52,2.856c-1.084,1.084-1.721,2.432-2.327,3.798
		c-1.996,0.645-3.054,2.501-4.397,4.245c-2.82,3.659-4.293,7.324-6.002,11.597c-1.098,2.744-1.747,8.041,0.393,10.432
		c1.35,1.509,3.04,2.799,4.512,4.211c0.185,0.177,0.345,0.381,0.515,0.575c-0.055,0.063-0.118,0.116-0.167,0.185
		c-1.387,1.926-1.371,4.56-1.752,6.847c-0.097,0.581-1.083,4.457-0.328,4.787c-0.604-0.264-1.11-0.332-1.762-0.373
		c-0.848-0.053-0.68-3.896-1.083-3.167c-2.032,3.671,1,10.381,1,14c0,0.918,1.976,4.109,2.5,4.5c0.019,0.176-1.395-0.19-1.333,0
		c0.37,1.15-0.041,0.907,0.373,1.964c0.287,0.734,0.607,1.764,1.078,2.544c-4.861,6.604-9.578,13.272-8.195,21.573
		c0.253,1.521,0.737,4.542,1.502,5.847c1.015,1.732,3.017,3.032,4.335,4.562c2.613,3.031,8.785,5.59,12.823,5.927
		c0.695,0.058,1.318-0.249,1.77-0.734c1.269,0.477,2.429-0.134,3.047-1.062c1.952,0.608,3.997,0.967,5.927,1.187
		c1.635,2.741,4.069,5.092,7.064,6c1.722,0.522,3.035,0.424,4.059-0.09c0.35,0.75,0.798,1.456,1.291,2.145
		c0.048,3.753,2.457,7.873,4.824,10.407c3.84,4.111,9.783,6.309,14.851,8.481c4.396,1.886,9.983,3.702,14.75,4.25
		c2.273,0.261,2.881,0.49,5.167,0.5c0.158,0.177,0.853,0.019,1.072,0.159c0.807,0.517,1.819,0.781,2.771,0.471
		c0.942-0.308,3.523-0.468,4.489-0.046c1.82,0.796,1.668,1.044,3.606,1.289c0.321,0.465,0.8,0.815,1.396,1.039
		c0.908,0.341,2.206,0.349,3.172,0.416c2.019,0.14,3.912,0.506,5.954,0.506c1.864,0,2.458-0.204,3.622-1.75
		c0.864-1.147,0.212-2.746-0.5-3.834c0.021-0.496,0.921-0.815,0.918-1.262c2.384-1.683,4.178-4.315,6.298-6.269
		c1.66-1.53,3.967-4.706,3.701-7.053c-0.012-0.106-0.045-0.199-0.065-0.301c0.984-1.344,1.896-2.644,2.269-4.451
		c1.051-5.097,0.01-10.49-2.711-14.843C152.038,102.554,151.397,102.208,150.735,102.13z"/>
</g>
<g id="Layer_1">
	<g>
		<path d="M178.518,45.65c-2.129-13.543-11.873-23.388-26.731-26.99c-3.685-0.893-7.468-1.459-11.289-1.678
			c-0.006-0.136-0.062-0.27-0.174-0.364c-7.8-6.588-15.06-5.826-21.488-3.194c-1.174,0.044-2.795-0.343-4.778-0.82
			c-2.591-0.623-5.707-1.367-9.363-1.572c-2.719-0.367-5.405-0.564-7.996-0.564c-1.305,0-2.58,0.048-3.829,0.138l0.024-0.086
			c-5.247-1.548-10.025-3.342-14.244-4.925c-12.262-4.603-21.122-7.927-28.02-0.263C45.502,11.028,39.65,17.55,37.91,30.344
			C27.283,20.021,11.436,12.697,3.074,12.697c-0.432,0-0.849,0.018-1.245,0.055L0.49,12.877l1.096,0.781
			C4.957,16.06,6.664,19.647,8.641,23.8c0.251,0.528,0.508,1.066,0.772,1.613c0.239,0.493,0.938,0.632,2.208,0.884
			c1.756,0.349,4.527,0.899,6.81,2.686c-0.394-0.024-0.839-0.04-1.324-0.04c-1.341,0-3.265,0.127-4.808,0.731l-0.548,0.215
			l0.3,0.506c3.704,6.246,10.058,14.054,26.362,20.931c0.748,5.143,1.939,10.9,3.66,17.369l0.078,1.32
			c-1.521,2.128-2.951,4.411-4.259,6.877c-4.291,8.092-4.792,15.192-1.488,20.859C40.656,105.047,50.475,108,58.32,109
			c0.004,0,0.009,0,0.014,0c0.053,0,0.101-0.029,0.149-0.061c5.313,6.653,12.355,11.836,20.042,12.043
			c0.001,0.004,0,0.009,0.002,0.013c4.588,13.437,33.936,19.237,43.888,19.237c0.624,0,1.173-0.022,1.634-0.067
			c0.119-0.013,0.221-0.069,0.301-0.149c2.748,1.762,8.215,3.645,12.76,3.645c1.074,0,2.097-0.105,3.018-0.342
			c1.729-0.445,2.771-1.256,3.098-2.408c0.312-1.104-0.123-2.293-0.668-3.248c1.105-0.911,12.297-10.424,13.11-22.794
			c0.459-6.972-2.241-10.537-4.213-13.142c-1.707-2.256-2.836-3.746-1.509-6.331c2.908-5.663,6.984-22.78,6.556-30.815
			c3.063,2.88,6.052,6.49,8.911,11.019l0.264,0.416l0.42-0.262C175.453,70.021,180.445,57.92,178.518,45.65z M51.372,6.001
			c6.441-7.156,14.589-4.1,26.924,0.53c3.667,1.376,7.782,2.904,12.244,4.303c-22.728,2.707-35.872,20.172-42.66,34.748
			c-1.43-5.076-4.756-9.963-9.068-14.348C40.395,18.2,46.255,11.687,51.372,6.001z M44.587,53.706
			c-1.543,4.457-2.387,8.131-2.672,10.279c-1.06-4.416-1.862-8.481-2.423-12.21C41.093,52.429,42.794,53.073,44.587,53.706z
			 M37.267,96.998c-3.118-5.35-2.61-11.997,1.508-19.762c1.337-2.522,2.81-4.844,4.376-7.008l7.934-9.086
			c4.537-4.395,9.348-8.05,13.859-11.477c6.445-4.896,12.012-9.12,15.474-14.383c0.152-0.231,0.088-0.533-0.143-0.685
			c-0.23-0.152-0.541-0.072-0.692,0.158c-3.369,5.12-8.872,9.331-15.244,14.171c-3.792,2.881-7.793,5.939-11.673,9.457
			c1.229-6.512,6.715-17.613,15.403-27.37c7.665-8.607,20.192-18.868,36.349-18.868c0.407,0,0.822,0.007,1.232,0.02l0.007-0.063
			c3.147,0.269,5.868,0.921,8.166,1.474c1.17,0.281,2.202,0.521,3.133,0.677c-2.146,1.01-4.192,2.176-6.127,3.279
			c-2.964,1.69-5.765,3.288-8.295,3.986c-0.267,0.073-0.423,0.349-0.349,0.615c0.062,0.222,0.263,0.367,0.48,0.367
			c0.045,0,0.089-0.006,0.133-0.018c2.652-0.731,5.506-2.358,8.525-4.081c2.477-1.413,5.054-2.88,7.736-4.003
			c0.131-0.01,0.271-0.009,0.395-0.029l-0.021-0.127c6.006-2.43,12.539-3.028,19.668,2.677c-0.722-0.025-1.442-0.042-2.166-0.042
			c-28.799,0-53.885,19.097-66.274,30.505c-16.541,15.23-24.31,31.057-21.314,43.567c1.228,5.128,4.063,11.175,7.988,16.496
			C49.955,106.982,41.148,103.656,37.267,96.998z M149.057,94.938c-1.615,3.144-0.125,5.112,1.601,7.391
			c1.979,2.616,4.446,5.874,4.012,12.472c-0.759,11.525-11.248,20.812-12.659,22.014c-0.414-0.573-0.775-0.953-0.814-0.994
			c-0.192-0.198-0.51-0.203-0.707-0.012c-0.198,0.191-0.204,0.508-0.012,0.707c0.635,0.655,2.193,2.676,1.785,4.123
			c-0.222,0.784-1.023,1.36-2.385,1.711c-5.618,1.448-15.232-2.479-16.277-4.269c-0.14-0.239-0.447-0.321-0.684-0.181
			c-0.238,0.14-0.318,0.445-0.18,0.685c0.115,0.198,0.311,0.411,0.547,0.629c-9.612,0.517-38.956-5.792-43.674-18.214h0.12
			l-0.261-0.514c-0.008-0.021-0.862-2.065-3.007-7.182l-0.225-0.535l-0.497,0.303c-0.755,0.46-1.555,0.693-2.378,0.693
			c-6.259,0-12.879-13.082-12.879-20.118c0-1.484,0.27-2.639,0.8-3.432C61.831,89.398,62.638,89,63.823,89c0.001,0,0.002,0,0.002,0
			c9.89,0.159,15.167,11.59,15.219,11.705l0.302,0.67l0.512-0.527c6.227-6.412,3.756-18.499,1.366-30.188
			c-1.947-9.522-3.788-18.531-0.893-23.788c9.226,5.938,18.948,6.766,28.094,6.766c2.486,0,5.019-0.068,7.468-0.133
			c2.438-0.065,4.959-0.132,7.428-0.132c10.225,0,21.576,0.978,32.092,10.221C156.305,70.732,151.982,89.238,149.057,94.938z"/>
		<path d="M109.25,58c1.396,0,2.387,0.887,2.938,2.704c0.082,0.265,0.358,0.378,0.625,0.298c0.264-0.081,0.412-0.337,0.332-0.601
			C112.277,57.552,110.549,57,109.25,57c-0.001,0-0.002,0-0.002,0c-3.854,0-9.121,5.372-10.393,9.568
			c-0.08,0.264,0.067,0.497,0.332,0.577c0.049,0.015,0.098,0.021,0.146,0.021c0.215,0,0.412-0.093,0.479-0.309
			C100.965,63.053,105.841,57.999,109.25,58L109.25,58L109.25,58z"/>
		<path d="M144.689,65.146c0.27,0.08,0.545-0.073,0.623-0.337c0.267-0.901,0.815-1.958,1.924-1.841
			c1.351,0.136,3.072,2.02,3.266,4.243c0.021,0.26,0.241,0.457,0.497,0.457c0.015,0,0.028,0,0.044-0.002
			c0.275-0.024,0.479-0.266,0.455-0.542c-0.223-2.542-2.166-4.949-4.161-5.151c-0.655-0.067-2.241,0.05-2.983,2.552
			C144.275,64.789,144.426,65.067,144.689,65.146z"/>
		<path d="M65.325,93.859c-0.265-0.09-0.545,0.055-0.632,0.316c-0.087,0.262,0.054,0.545,0.316,0.632
			c3.969,1.323,6.23,4.824,6.94,6.685c0.361,0.945,0.347,1.482,0.284,1.594c-0.137,0.239-0.054,0.545,0.186,0.682
			c0.078,0.045,0.164,0.066,0.248,0.066c0.173,0,0.342-0.091,0.435-0.252c0.355-0.621,0.078-1.674-0.218-2.447
			C71.848,98.422,69.108,95.121,65.325,93.859z"/>
		<path d="M112.469,74.894c-4.801,0-8.203,5.512-8.469,13.731c0,0.283,0.045,6.996,4.012,11.217
			c0.998,1.064,2.067,1.914,3.148,2.551c0.006,0.033,0.008,0.064,0.012,0.099l0.123-0.019c1.344,0.766,2.701,1.188,3.969,1.188
			c1.973,0,3.586-0.962,4.666-2.78c2.28-3.842,5.246-16.806-1.587-23.244C116.439,75.842,114.408,74.894,112.469,74.894z
			 M112.094,101.782c-0.721-5.991,1.389-9.987,3.668-11.746c1.266-0.976,2.59-1.278,3.631-0.835
			c1.062,0.451,1.752,1.672,1.944,3.437l0.034-0.004c-0.223,1.701-0.583,3.288-1.006,4.635c-0.729-1.999-3.106-2.524-4.032-1.102
			c-1.007,1.549-1.558,4.312-0.364,6.435c-0.229,0.035-0.463,0.061-0.705,0.061C114.26,102.661,113.18,102.354,112.094,101.782z
			 M121.59,90.006c-0.439-0.808-1.047-1.402-1.806-1.725c-1.388-0.59-3.075-0.238-4.634,0.963c-2.396,1.85-4.635,5.899-4.133,11.882
			c-0.777-0.532-1.545-1.188-2.279-1.968C105.049,95.229,105,88.69,105,88.641c0.246-7.624,3.248-12.747,7.469-12.747
			c1.68,0,3.475,0.854,5.188,2.47C120.807,81.331,121.723,85.794,121.59,90.006z"/>
		<path d="M140.646,101.289c0.838,0,1.742-0.436,2.688-1.294c5.374-4.874,6.817-16.354,3.974-21.366
			c-0.861-1.52-1.953-1.839-2.719-1.839c-3.188,0-6.631,5.206-7.581,9.86c-0.897,4.402-0.476,11.051,1.566,13.551
			C139.165,100.924,139.861,101.289,140.646,101.289z M142.54,99.357c-0.12,0.104-0.24,0.207-0.354,0.295
			c0.336-1.557-0.313-3.993-1.019-4.568c-0.876-0.717-2.496,0.029-2.858,2.273c-0.242-0.822-0.424-1.764-0.545-2.766
			c0.45-2.201,2.062-4.131,3.312-4.566c0.472-0.165,0.851-0.113,1.159,0.152C142.762,90.635,143.841,92.448,142.54,99.357z
			 M137.99,86.85c0.933-4.572,4.201-9.06,6.601-9.06c0.726,0,1.349,0.448,1.851,1.331c2.408,4.246,1.394,13.892-2.662,18.924
			c0.716-4.583,0.422-7.489-0.893-8.625c-0.576-0.498-1.339-0.619-2.142-0.338c-1.177,0.409-2.362,1.651-3.156,3.141
			C137.535,90.334,137.67,88.419,137.99,86.85z"/>
		<path d="M129.236,138.35c1.269,0.821,3.127,1.385,4.918,1.385c1.705,0,3.352-0.512,4.363-1.801
			c0.17-0.217,0.133-0.531-0.084-0.701c-0.216-0.168-0.531-0.133-0.703,0.084c-0.094,0.119-0.196,0.228-0.306,0.328
			c-0.093-0.168-0.183-0.34-0.286-0.504c-0.306-1.295-0.328-4.529-0.017-7.971c0.004-0.043-0.007-0.084-0.015-0.125
			c0.549-0.283,1.119-0.564,1.724-0.84c0.251-0.114,0.362-0.41,0.248-0.662s-0.409-0.359-0.662-0.248
			c-4.993,2.27-9.011,5.42-10.485,8.223C127.443,136.443,127.932,137.503,129.236,138.35z M135.945,135.598
			c-1.68-1.859-3.704-3.132-3.909-3.259c1.087-0.901,2.433-1.833,4.046-2.739C135.949,131.195,135.805,133.646,135.945,135.598z
			 M128.816,135.982c0.451-0.855,1.275-1.897,2.494-3.012c0.041,0.081,0.096,0.154,0.178,0.205c0.035,0.021,3.201,1.98,4.811,4.508
			c0.074,0.217,0.16,0.402,0.26,0.553c-2.002,0.957-5.104,0.356-6.777-0.728C129.473,137.311,128.488,136.607,128.816,135.982z"/>
	</g>
	<circle cx="116.377" cy="110.672" r="1.349"/>
	<circle cx="108.377" cy="108.672" r="1.349"/>
	<circle cx="110.377" cy="114.672" r="1.349"/>
	<circle cx="149.723" cy="108.261" r="1.349"/>
	<circle cx="141.551" cy="109.367" r="1.349"/>
	<circle cx="145.631" cy="114.199" r="1.349"/>
	<rect x="3.75" y="153" fill="none" width="172.5" height="42.5"/>
	<text transform="matrix(1 0 0 1 15.3066 161.5195)" fill="#808080" font-family="'MyriadPro-Regular'" font-size="12">*This is Peet Nochio, not to be </text>
	<text transform="matrix(1 0 0 1 27.043 175.9199)" fill="#808080" font-family="'MyriadPro-Regular'" font-size="12">confused with his heavily</text>
	<text transform="matrix(1 0 0 1 38.7969 190.3203)" fill="#808080" font-family="'MyriadPro-Regular'" font-size="12">trademarked cousin.</text>
</g>
</svg>
