<?xml version="1.0" encoding="utf-8"?>
<!-- Generator: Adobe Illustrator 15.0.0, SVG Export Plug-In . SVG Version: 6.00 Build 0)  -->
<!DOCTYPE svg PUBLIC "-//W3C//DTD SVG 1.1//EN" "http://www.w3.org/Graphics/SVG/1.1/DTD/svg11.dtd">
<svg version="1.1" id="Layer_1" xmlns="http://www.w3.org/2000/svg" xmlns:xlink="http://www.w3.org/1999/xlink" x="0px" y="0px"
	 width="180px" height="193.75px" viewBox="0 0 180 193.75" enable-background="new 0 0 180 193.75" xml:space="preserve">
<g>
	<path d="M178.517,45.65c-2.129-13.543-11.872-23.388-26.731-26.99c-3.684-0.893-7.468-1.459-11.289-1.678
		c-0.006-0.136-0.062-0.27-0.174-0.364c-7.8-6.588-15.059-5.826-21.488-3.194c-1.174,0.044-2.795-0.343-4.778-0.82
		c-2.591-0.623-5.708-1.367-9.363-1.572c-2.72-0.367-5.406-0.564-7.997-0.564c-1.305,0-2.58,0.048-3.829,0.138l0.025-0.086
		c-5.247-1.548-10.026-3.342-14.244-4.925C66.387,0.992,57.527-2.332,50.629,5.332C45.502,11.028,39.65,17.55,37.91,30.344
		C27.283,20.021,11.436,12.697,3.074,12.697c-0.432,0-0.849,0.018-1.245,0.055l-1.339,0.125l1.096,0.781
		c3.371,2.402,5.078,5.989,7.055,10.142c0.251,0.528,0.508,1.066,0.772,1.613c0.239,0.493,0.938,0.632,2.208,0.884
		c1.756,0.349,4.527,0.899,6.81,2.686c-0.394-0.024-0.839-0.04-1.324-0.04c-1.341,0-3.265,0.127-4.808,0.731l-0.548,0.215l0.3,0.506
		c3.704,6.246,10.058,14.054,26.362,20.931c0.748,5.143,1.939,10.9,3.66,17.369l0.078,1.32c-1.521,2.128-2.951,4.411-4.259,6.877
		c-4.291,8.092-4.792,15.192-1.488,20.859C40.656,105.047,50.475,108,58.32,109c0.004,0,0.009,0,0.014,0
		c0.053,0,0.101-0.029,0.149-0.061c5.313,6.654,12.355,11.836,20.042,12.043c0.001,0.004,0,0.009,0.002,0.013
		c4.588,13.437,33.936,19.237,43.888,19.237c0.624,0,1.173-0.022,1.634-0.067c0.119-0.012,0.221-0.07,0.3-0.149
		c2.748,1.761,8.216,3.644,12.761,3.644c1.073,0,2.096-0.105,3.017-0.342c1.729-0.445,2.771-1.255,3.098-2.408
		c0.311-1.103-0.124-2.293-0.669-3.248c1.106-0.911,12.297-10.424,13.111-22.794c0.459-6.971-2.241-10.537-4.213-13.142
		c-1.707-2.256-2.836-3.746-1.509-6.33c2.908-5.663,6.984-22.78,6.556-30.815c3.064,2.88,6.052,6.49,8.911,11.019l0.264,0.416
		l0.42-0.262C175.453,70.021,180.445,57.92,178.517,45.65z M51.372,6.001c6.441-7.156,14.589-4.1,26.924,0.53
		c3.667,1.376,7.782,2.904,12.244,4.303c-22.728,2.707-35.872,20.172-42.66,34.748c-1.43-5.076-4.756-9.963-9.068-14.348
		C40.395,18.2,46.255,11.687,51.372,6.001z M44.587,53.706c-1.543,4.457-2.387,8.131-2.672,10.279
		c-1.06-4.416-1.862-8.481-2.423-12.21C41.093,52.429,42.794,53.073,44.587,53.706z M37.267,96.998
		c-3.118-5.35-2.61-11.997,1.508-19.762c1.337-2.522,2.81-4.844,4.376-7.008l7.934-9.086c4.537-4.395,9.348-8.05,13.859-11.477
		c6.445-4.896,12.012-9.12,15.474-14.383c0.152-0.231,0.088-0.533-0.143-0.685c-0.23-0.152-0.541-0.072-0.692,0.158
		c-3.369,5.12-8.872,9.331-15.244,14.171c-3.792,2.881-7.793,5.939-11.673,9.457c1.229-6.512,6.715-17.613,15.403-27.37
		c7.665-8.607,20.192-18.868,36.349-18.868c0.407,0,0.822,0.007,1.233,0.02l0.006-0.063c3.147,0.269,5.868,0.921,8.166,1.474
		c1.17,0.281,2.203,0.521,3.133,0.677c-2.146,1.01-4.193,2.176-6.127,3.279c-2.964,1.69-5.764,3.288-8.295,3.986
		c-0.266,0.073-0.422,0.349-0.349,0.615c0.062,0.222,0.263,0.367,0.481,0.367c0.045,0,0.089-0.006,0.133-0.018
		c2.652-0.731,5.505-2.358,8.525-4.081c2.477-1.413,5.054-2.88,7.736-4.003c0.131-0.01,0.271-0.009,0.395-0.029l-0.021-0.127
		c6.005-2.43,12.538-3.028,19.668,2.677c-0.722-0.025-1.443-0.042-2.167-0.042c-28.799,0-53.884,19.097-66.274,30.505
		c-16.541,15.23-24.31,31.057-21.314,43.567c1.228,5.128,4.063,11.175,7.988,16.497C49.955,106.983,41.148,103.656,37.267,96.998z
		 M149.056,94.938c-1.615,3.144-0.125,5.112,1.601,7.391c1.98,2.617,4.446,5.874,4.012,12.472
		c-0.759,11.525-11.248,20.812-12.659,22.013c-0.414-0.573-0.776-0.953-0.815-0.994c-0.192-0.198-0.509-0.203-0.707-0.012
		c-0.198,0.192-0.204,0.509-0.012,0.707c0.636,0.656,2.194,2.677,1.786,4.123c-0.222,0.785-1.023,1.361-2.385,1.711
		c-5.618,1.449-15.232-2.479-16.277-4.268c-0.14-0.239-0.447-0.321-0.684-0.18c-0.238,0.139-0.319,0.445-0.18,0.684
		c0.116,0.198,0.311,0.411,0.547,0.629c-9.612,0.517-38.956-5.792-43.674-18.214h0.12l-0.261-0.513
		c-0.008-0.021-0.862-2.066-3.007-7.182l-0.225-0.536l-0.497,0.303c-0.755,0.46-1.555,0.693-2.378,0.693
		c-6.259,0-12.879-13.082-12.879-20.117c0-1.484,0.27-2.639,0.8-3.432C61.831,89.398,62.638,89,63.823,89c0.001,0,0.002,0,0.002,0
		c9.89,0.159,15.167,11.59,15.219,11.705l0.302,0.67l0.512-0.527c6.227-6.412,3.756-18.499,1.366-30.188
		c-1.947-9.522-3.788-18.531-0.893-23.788c9.226,5.938,18.948,6.766,28.094,6.766c2.486,0,5.019-0.068,7.467-0.133
		c2.438-0.065,4.96-0.132,7.428-0.132c10.225,0,21.577,0.978,32.092,10.221C156.305,70.732,151.983,89.238,149.056,94.938z"/>
	<path d="M109.25,58c1.396,0,2.386,0.887,2.938,2.704c0.081,0.265,0.358,0.378,0.624,0.298c0.264-0.081,0.413-0.337,0.333-0.601
		C112.278,57.552,110.549,57,109.25,57c-0.001,0-0.002,0-0.002,0c-3.854,0-9.121,5.372-10.393,9.568
		c-0.08,0.264,0.068,0.497,0.333,0.577c0.048,0.015,0.097,0.021,0.146,0.021c0.215,0,0.412-0.093,0.479-0.309
		c1.152-3.804,6.028-8.858,9.436-8.858H109.25z"/>
	<path d="M144.69,65.146c0.269,0.08,0.544-0.073,0.622-0.337c0.267-0.901,0.816-1.958,1.924-1.841
		c1.351,0.136,3.072,2.02,3.266,4.243c0.022,0.26,0.241,0.457,0.497,0.457c0.015,0,0.029,0,0.044-0.002
		c0.275-0.024,0.479-0.266,0.455-0.542c-0.222-2.542-2.166-4.949-4.161-5.151c-0.655-0.067-2.241,0.05-2.983,2.552
		C144.275,64.789,144.426,65.067,144.69,65.146z"/>
	<path d="M65.325,93.859c-0.265-0.09-0.545,0.055-0.632,0.316c-0.087,0.262,0.054,0.545,0.316,0.632
		c3.969,1.323,6.23,4.824,6.94,6.685c0.361,0.946,0.347,1.482,0.284,1.594c-0.137,0.239-0.054,0.545,0.186,0.682
		c0.078,0.045,0.164,0.066,0.248,0.066c0.173,0,0.342-0.091,0.435-0.252c0.355-0.621,0.078-1.674-0.218-2.447
		C71.848,98.422,69.108,95.121,65.325,93.859z"/>
	<path d="M112.469,74.894c-4.801,0-8.204,5.512-8.469,13.731c0,0.283,0.045,6.996,4.011,11.217c0.999,1.064,2.068,1.914,3.149,2.551
		c0.006,0.033,0.008,0.064,0.012,0.098l0.123-0.019c1.344,0.766,2.701,1.189,3.968,1.189c1.974,0,3.587-0.962,4.667-2.78
		c2.28-3.842,5.246-16.806-1.587-23.244C116.439,75.842,114.408,74.894,112.469,74.894z M112.094,101.782
		c-0.721-5.991,1.389-9.987,3.668-11.746c1.265-0.976,2.589-1.278,3.631-0.835c1.062,0.451,1.752,1.672,1.944,3.437l0.034-0.004
		c-0.223,1.701-0.583,3.288-1.006,4.635c-0.729-1.999-3.106-2.524-4.032-1.102c-1.007,1.549-1.558,4.311-0.364,6.434
		c-0.229,0.036-0.463,0.061-0.706,0.061C114.26,102.661,113.18,102.353,112.094,101.782z M121.59,90.006
		c-0.439-0.808-1.047-1.402-1.806-1.725c-1.388-0.59-3.075-0.238-4.634,0.963c-2.396,1.85-4.635,5.899-4.133,11.882
		c-0.777-0.532-1.545-1.188-2.278-1.968C105.049,95.229,105,88.69,105,88.641c0.246-7.624,3.248-12.747,7.469-12.747
		c1.68,0,3.474,0.854,5.188,2.47C120.807,81.331,121.723,85.794,121.59,90.006z"/>
	<path d="M140.646,101.289c0.838,0,1.743-0.436,2.689-1.294c5.374-4.874,6.818-16.354,3.974-21.366
		c-0.862-1.52-1.954-1.839-2.719-1.839c-3.187,0-6.631,5.206-7.581,9.86c-0.898,4.402-0.476,11.051,1.566,13.551
		C139.165,100.924,139.862,101.289,140.646,101.289z M142.54,99.358c-0.12,0.104-0.24,0.207-0.355,0.294
		c0.337-1.556-0.313-3.993-1.018-4.568c-0.876-0.717-2.496,0.029-2.859,2.273c-0.242-0.822-0.423-1.764-0.544-2.766
		c0.45-2.201,2.062-4.131,3.311-4.566c0.472-0.165,0.851-0.113,1.159,0.152C142.762,90.635,143.841,92.448,142.54,99.358z
		 M137.99,86.85c0.933-4.572,4.202-9.06,6.601-9.06c0.726,0,1.348,0.448,1.85,1.331c2.409,4.246,1.394,13.892-2.662,18.924
		c0.716-4.583,0.422-7.489-0.892-8.625c-0.577-0.498-1.339-0.619-2.142-0.338c-1.177,0.409-2.362,1.651-3.156,3.141
		C137.535,90.334,137.67,88.419,137.99,86.85z"/>
	<path d="M129.236,138.349c1.269,0.822,3.127,1.386,4.918,1.386c1.706,0,3.352-0.512,4.364-1.801
		c0.17-0.217,0.133-0.531-0.085-0.702c-0.215-0.168-0.531-0.133-0.702,0.085c-0.094,0.119-0.197,0.227-0.306,0.328
		c-0.093-0.169-0.183-0.34-0.287-0.504c-0.305-1.295-0.328-4.53-0.016-7.971c0.004-0.043-0.007-0.084-0.014-0.125
		c0.549-0.284,1.118-0.565,1.723-0.84c0.251-0.114,0.362-0.41,0.248-0.662s-0.409-0.359-0.662-0.248
		c-4.993,2.27-9.011,5.42-10.485,8.223C127.444,136.444,127.932,137.503,129.236,138.349z M135.946,135.597
		c-1.681-1.858-3.705-3.131-3.91-3.258c1.087-0.901,2.433-1.833,4.046-2.74C135.949,131.196,135.805,133.646,135.946,135.597z
		 M128.817,135.982c0.45-0.855,1.275-1.897,2.494-3.011c0.04,0.081,0.095,0.154,0.177,0.205c0.035,0.021,3.201,1.98,4.811,4.507
		c0.074,0.218,0.16,0.403,0.259,0.553c-2.001,0.958-5.104,0.357-6.777-0.727C129.472,137.31,128.489,136.607,128.817,135.982z"/>
</g>
<circle cx="116.377" cy="110.672" r="1.349"/>
<circle cx="108.377" cy="108.672" r="1.349"/>
<circle cx="110.377" cy="114.672" r="1.349"/>
<circle cx="149.723" cy="108.261" r="1.349"/>
<circle cx="141.551" cy="109.367" r="1.349"/>
<circle cx="145.631" cy="114.199" r="1.349"/>
<rect x="3.75" y="153" fill="none" width="172.5" height="42.5"/>
<text transform="matrix(1 0 0 1 15.3071 161.5195)"><tspan x="0" y="0" fill="#808080" font-family="'MyriadPro-Regular'" font-size="12">*This is Peet Nochio, not to be </tspan><tspan x="11.736" y="14.4" fill="#808080" font-family="'MyriadPro-Regular'" font-size="12">confused with his heavily</tspan><tspan x="23.49" y="28.801" fill="#808080" font-family="'MyriadPro-Regular'" font-size="12">trademarked cousin.</tspan></text>
</svg>
